<svg width="24" height="162" viewBox="0 0 24 162" fill="none" xmlns="http://www.w3.org/2000/svg">
<path d="M3 69.5H14.5V79.5H0.5V72C0.5 71.337 0.763392 70.7011 1.23223 70.2322C1.70107 69.7634 2.33696 69.5 3 69.5Z" stroke="#1CEDFF"/>
<path d="M20.5 69.5H21C21.663 69.5 22.2989 69.7634 22.7678 70.2322C23.2366 70.7011 23.5 71.337 23.5 72V79.5H17.5V69.5H20.5Z" stroke="#1CEDFF"/>
<path d="M0.5 90V82.5H6.5V92.5H3C2.33696 92.5 1.70107 92.2366 1.23223 91.7678C0.763392 91.2989 0.5 90.663 0.5 90Z" stroke="#1CEDFF"/>
<path d="M9.5 92.5V82.5H23.5V90C23.5 90.663 23.2366 91.2989 22.7678 91.7678C22.2989 92.2366 21.663 92.5 21 92.5H9.5Z" stroke="#1CEDFF"/>
<path d="M18.9998 17.5H19H20H20.0002C20.8615 17.4996 21.7111 17.327 22.5 16.9953V21C22.5 21.663 22.2366 22.2989 21.7678 22.7678C21.2989 23.2366 20.663 23.5 20 23.5H4C3.33696 23.5 2.70107 23.2366 2.23223 22.7678C1.76339 22.2989 1.5 21.663 1.5 21V16.9949C2.28876 17.3269 3.13843 17.4997 3.99983 17.5H4L5 17.5L5.00059 17.5C6.04756 17.4988 7.07692 17.2422 8.00002 16.7543C8.92313 17.2421 9.95243 17.4987 10.9994 17.5H11H13H13.0002C14.0461 17.4996 15.075 17.2467 16 16.7644C16.925 17.2467 17.9539 17.4996 18.9998 17.5Z" stroke="#1CEDFF"/>
<mask id="path-6-inside-1" fill="white">
<path d="M17 0V6H15V0H9V6H7V0H2.2L0.024 9.783L0 11C0 12.0609 0.421427 13.0783 1.17157 13.8284C1.92172 14.5786 2.93913 15 4 15H5C5.56989 14.9982 6.13273 14.8738 6.65034 14.6354C7.16795 14.3969 7.62824 14.0499 8 13.618C8.37176 14.0499 8.83205 14.3969 9.34966 14.6354C9.86727 14.8738 10.4301 14.9982 11 15H13C13.5678 15.0003 14.1292 14.8794 14.6465 14.6454C15.1639 14.4114 15.6253 14.0696 16 13.643C16.3747 14.0696 16.8361 14.4114 17.3535 14.6454C17.8708 14.8794 18.4322 15.0003 19 15H20C21.0609 15 22.0783 14.5786 22.8284 13.8284C23.5786 13.0783 24 12.0609 24 11V10L21.8 0H17Z"/>
</mask>
<path d="M17 0V-1H16V0H17ZM17 6V7H18V6H17ZM15 6H14V7H15V6ZM15 0H16V-1H15V0ZM9 0V-1H8V0H9ZM9 6V7H10V6H9ZM7 6H6V7H7V6ZM7 0H8V-1H7V0ZM2.2 0V-1H1.39799L1.22386 -0.217121L2.2 0ZM0.024 9.783L-0.952145 9.56588L-0.973836 9.6634L-0.975806 9.76328L0.024 9.783ZM0 11L-0.999806 10.9803L-1 10.9901V11H0ZM4 15V16V15ZM5 15V16L5.00323 16L5 15ZM8 13.618L8.75794 12.9657L8 12.085L7.24206 12.9657L8 13.618ZM11 15L10.9968 16H11V15ZM13 15L13.0005 14H13V15ZM16 13.643L16.7514 12.9831L16 12.1276L15.2486 12.9831L16 13.643ZM19 15V14H18.9995L19 15ZM20 15V16V15ZM24 10H25V9.8913L24.9766 9.78514L24 10ZM21.8 0L22.7766 -0.214862L22.6039 -1H21.8V0ZM16 0V6H18V0H16ZM17 5H15V7H17V5ZM16 6V0H14V6H16ZM15 -1H9V1H15V-1ZM8 0V6H10V0H8ZM9 5H7V7H9V5ZM8 6V0H6V6H8ZM7 -1H2.2V1H7V-1ZM1.22386 -0.217121L-0.952145 9.56588L1.00014 10.0001L3.17614 0.217121L1.22386 -0.217121ZM-0.975806 9.76328L-0.999806 10.9803L0.999806 11.0197L1.02381 9.80272L-0.975806 9.76328ZM-1 11C-1 12.3261 -0.473216 13.5979 0.464466 14.5355L1.87868 13.1213C1.31607 12.5587 1 11.7956 1 11H-1ZM0.464466 14.5355C1.40215 15.4732 2.67392 16 4 16V14C3.20435 14 2.44129 13.6839 1.87868 13.1213L0.464466 14.5355ZM4 16H5V14H4V16ZM5.00323 16C5.71649 15.9977 6.42092 15.8421 7.06875 15.5436L6.23194 13.7271C5.84454 13.9056 5.4233 13.9986 4.99677 14L5.00323 16ZM7.06875 15.5436C7.71658 15.2452 8.29266 14.8109 8.75794 14.2703L7.24206 12.9657C6.96383 13.289 6.61933 13.5486 6.23194 13.7271L7.06875 15.5436ZM7.24206 14.2703C7.70734 14.8109 8.28342 15.2452 8.93125 15.5436L9.76806 13.7271C9.38067 13.5486 9.03617 13.289 8.75794 12.9657L7.24206 14.2703ZM8.93125 15.5436C9.57908 15.8421 10.2835 15.9977 10.9968 16L11.0032 14C10.5767 13.9986 10.1555 13.9056 9.76806 13.7271L8.93125 15.5436ZM11 16H13V14H11V16ZM12.9995 16C13.7096 16.0004 14.4116 15.8492 15.0586 15.5565L14.2344 13.7343C13.8467 13.9096 13.426 14.0002 13.0005 14L12.9995 16ZM15.0586 15.5565C15.7056 15.2638 16.2827 14.8365 16.7514 14.3029L15.2486 12.9831C14.9679 13.3028 14.6221 13.5589 14.2344 13.7343L15.0586 15.5565ZM15.2486 14.3029C15.7173 14.8365 16.2943 15.2638 16.9414 15.5565L17.7656 13.7343C17.3779 13.5589 17.0321 13.3028 16.7514 12.9831L15.2486 14.3029ZM16.9414 15.5565C17.5884 15.8492 18.2904 16.0004 19.0005 16L18.9995 14C18.574 14.0002 18.1533 13.9096 17.7656 13.7343L16.9414 15.5565ZM19 16H20V14H19V16ZM20 16C21.3261 16 22.5979 15.4732 23.5355 14.5355L22.1213 13.1213C21.5587 13.6839 20.7956 14 20 14V16ZM23.5355 14.5355C24.4732 13.5979 25 12.3261 25 11H23C23 11.7956 22.6839 12.5587 22.1213 13.1213L23.5355 14.5355ZM25 11V10H23V11H25ZM24.9766 9.78514L22.7766 -0.214862L20.8234 0.214862L23.0234 10.2149L24.9766 9.78514ZM21.8 -1H17V1H21.8V-1Z" fill="#1CEDFF" mask="url(#path-6-inside-1)"/>
<path d="M18.5 140V140.5H19H20.5V159C20.5 159.663 20.2366 160.299 19.7678 160.768C19.2989 161.237 18.663 161.5 18 161.5H6C5.33696 161.5 4.70107 161.237 4.23223 160.768C3.76339 160.299 3.5 159.663 3.5 159V140.5H5H5.5V140V138.5H6.5V140V140.5H7H9H9.5V140V138.5H10.5V140V140.5H11H13H13.5V140V138.5H14.5V140V140.5H15H17H17.5V140V138.5H18.5V140ZM13 155.5H13.5V155V153V152.5H13H7H6.5V153V155V155.5H7H13ZM17 151.5H17.5V151V149V148.5H17H7H6.5V149V151V151.5H7H17ZM17 147.5H17.5V147V145V144.5H17H7H6.5V145V147V147.5H7H17Z" stroke="#1CEDFF"/>
</svg>
